<svg xmlns="http://www.w3.org/2000/svg" viewBox="0 0 64 64" role="img" aria-label="peplomer virus mark">
  <g fill="#1B1B22" stroke="#1B1B22" stroke-width="2.2" stroke-linecap="round">
    <circle cx="32" cy="32" r="11" fill="none"/>
    <circle cx="32" cy="32" r="4" stroke="none"/>
    <line x1="32.00" y1="18.50" x2="32.00" y2="9.10"/><circle cx="32.00" cy="6.00" r="2.6" stroke="none"/>
    <line x1="38.75" y1="20.31" x2="43.45" y2="12.17"/><circle cx="45.00" cy="9.48" r="2.6" stroke="none"/>
    <line x1="43.69" y1="25.25" x2="51.83" y2="20.55"/><circle cx="54.52" cy="19.00" r="2.6" stroke="none"/>
    <line x1="45.50" y1="32.00" x2="54.90" y2="32.00"/><circle cx="58.00" cy="32.00" r="2.6" stroke="none"/>
    <line x1="43.69" y1="38.75" x2="51.83" y2="43.45"/><circle cx="54.52" cy="45.00" r="2.6" stroke="none"/>
    <line x1="38.75" y1="43.69" x2="43.45" y2="51.83"/><circle cx="45.00" cy="54.52" r="2.6" stroke="none"/>
    <line x1="32.00" y1="45.50" x2="32.00" y2="54.90"/><circle cx="32.00" cy="58.00" r="2.6" stroke="none"/>
    <line x1="25.25" y1="43.69" x2="20.55" y2="51.83"/><circle cx="19.00" cy="54.52" r="2.6" stroke="none"/>
    <line x1="20.31" y1="38.75" x2="12.17" y2="43.45"/><circle cx="9.48" cy="45.00" r="2.6" stroke="none"/>
    <line x1="18.50" y1="32.00" x2="9.10" y2="32.00"/><circle cx="6.00" cy="32.00" r="2.6" stroke="none"/>
    <line x1="20.31" y1="25.25" x2="12.17" y2="20.55"/><circle cx="9.48" cy="19.00" r="2.6" stroke="none"/>
    <line x1="25.25" y1="20.31" x2="20.55" y2="12.17"/><circle cx="19.00" cy="9.48" r="2.6" stroke="none"/>
  </g>
</svg>
